<svg width="341" height="315" viewBox="0 0 341 315" fill="none" xmlns="http://www.w3.org/2000/svg">
<path d="M251.549 276.502C251.549 276.502 293.31 273.892 322.02 222.562C350.729 171.232 345.509 92.9318 309.84 49.4318C274.169 5.93182 218.489 -8.85818 165.419 5.06182C139.563 11.8391 122.32 29.4218 107.417 50.6324C94.4362 69.1112 79.8376 86.9114 60.193 98.6042C40.7398 110.175 20.7385 119.415 10.9162 141.408C-12.9914 194.965 4.46948 257.257 61.0195 278.242C121.919 300.862 223.709 288.682 251.549 276.502Z" fill="#53A9A9"/>
<path opacity="0.7" d="M251.549 276.502C251.549 276.502 293.31 273.892 322.02 222.562C350.729 171.232 345.509 92.9318 309.84 49.4318C274.169 5.93182 218.489 -8.85818 165.419 5.06182C139.563 11.8391 122.32 29.4218 107.417 50.6324C94.4362 69.1112 79.8376 86.9114 60.193 98.6042C40.7398 110.175 20.7385 119.415 10.9162 141.408C-12.9914 194.965 4.46948 257.257 61.0195 278.242C121.919 300.862 223.709 288.682 251.549 276.502Z" fill="white"/>
<path d="M176.008 314.799C258.09 314.799 324.63 308.957 324.63 301.749C324.63 294.542 258.09 288.699 176.008 288.699C93.9261 288.699 27.3857 294.542 27.3857 301.749C27.3857 308.957 93.9261 314.799 176.008 314.799Z" fill="#53A9A9"/>
<path opacity="0.5" d="M176.008 314.799C258.09 314.799 324.63 308.957 324.63 301.749C324.63 294.542 258.09 288.699 176.008 288.699C93.9261 288.699 27.3857 294.542 27.3857 301.749C27.3857 308.957 93.9261 314.799 176.008 314.799Z" fill="white"/>
<path d="M24.4534 136.693V144.41" stroke="#0A1E1E" stroke-width="0.87" stroke-linecap="round" stroke-linejoin="round"/>
<path d="M28.3163 140.556H20.5994" stroke="#0A1E1E" stroke-width="0.87" stroke-linecap="round" stroke-linejoin="round"/>
<path d="M287.776 70.5729V78.2898" stroke="#0A1E1E" stroke-width="0.87" stroke-linecap="round" stroke-linejoin="round"/>
<path d="M291.63 74.4357H283.914" stroke="#0A1E1E" stroke-width="0.87" stroke-linecap="round" stroke-linejoin="round"/>
<path d="M178.156 10.8386V18.5555" stroke="#0A1E1E" stroke-width="0.87" stroke-linecap="round" stroke-linejoin="round"/>
<path d="M182.01 14.6927H174.293" stroke="#0A1E1E" stroke-width="0.87" stroke-linecap="round" stroke-linejoin="round"/>
<path d="M51.1362 223.119V230.836" stroke="#0A1E1E" stroke-width="0.87" stroke-linecap="round" stroke-linejoin="round"/>
<path d="M54.9903 226.973H47.2734" stroke="#0A1E1E" stroke-width="0.87" stroke-linecap="round" stroke-linejoin="round"/>
<path d="M284.322 42.7589C284.324 44.0223 283.951 45.2578 283.25 46.3091C282.55 47.3603 281.553 48.1802 280.386 48.6648C279.22 49.1495 277.935 49.2772 276.696 49.0318C275.457 48.7864 274.318 48.1789 273.424 47.2862C272.53 46.3934 271.921 45.2556 271.674 44.0166C271.427 42.7777 271.553 41.4933 272.036 40.3259C272.519 39.1585 273.338 38.1607 274.388 37.4586C275.438 36.7566 276.673 36.3818 277.937 36.3818C279.629 36.3818 281.252 37.0534 282.449 38.2491C283.646 39.4448 284.32 41.0668 284.322 42.7589Z" stroke="#0A1E1E" stroke-width="0.87" stroke-linecap="round" stroke-linejoin="round"/>
<path d="M11.2608 195.979C14.5147 194.632 16.0598 190.901 14.712 187.647C13.3642 184.393 9.63384 182.848 6.37995 184.196C3.12607 185.544 1.5809 189.274 2.9287 192.528C4.2765 195.782 8.0069 197.327 11.2608 195.979Z" stroke="#0A1E1E" stroke-width="0.87" stroke-linecap="round" stroke-linejoin="round"/>
<path d="M313.319 108.009C313.335 108.209 313.309 108.409 313.243 108.599C313.177 108.788 313.073 108.961 312.937 109.108C312.801 109.255 312.636 109.372 312.453 109.453C312.269 109.533 312.071 109.574 311.871 109.574C311.671 109.574 311.473 109.533 311.289 109.453C311.105 109.372 310.941 109.255 310.805 109.108C310.668 108.961 310.564 108.788 310.499 108.599C310.433 108.409 310.407 108.209 310.422 108.009C310.451 107.644 310.615 107.304 310.884 107.055C311.153 106.806 311.505 106.668 311.871 106.668C312.237 106.668 312.589 106.806 312.858 107.055C313.126 107.304 313.291 107.644 313.319 108.009Z" stroke="#0A1E1E" stroke-width="0.87" stroke-linecap="round" stroke-linejoin="round"/>
<path d="M92.0525 87.129C92.0542 87.4167 91.9705 87.6985 91.8119 87.9386C91.6533 88.1786 91.427 88.3662 91.1617 88.4775C90.8963 88.5888 90.6039 88.6188 90.3215 88.5638C90.0391 88.5087 89.7794 88.371 89.5754 88.1682C89.3713 87.9653 89.2321 87.7064 89.1753 87.4244C89.1185 87.1423 89.1468 86.8497 89.2565 86.5837C89.3662 86.3178 89.5524 86.0903 89.7915 85.9303C90.0306 85.7703 90.3119 85.6848 90.5996 85.6848C90.9834 85.6848 91.3517 85.8367 91.6239 86.1073C91.8961 86.3779 92.0502 86.7452 92.0525 87.129Z" stroke="#0A1E1E" stroke-width="0.87" stroke-linecap="round" stroke-linejoin="round"/>
<path d="M335.87 172.685V172.641H335.818V172.598C334.609 172.476 322.09 171.406 310.667 177.339C315.713 171 318.04 162.919 317.139 154.867C314.381 127.288 288.36 111.506 286.35 110.323V110.332H286.289H286.228C284.219 111.515 258.197 127.297 255.439 154.876C254.85 160.214 255.672 165.614 257.823 170.536C243.172 161.775 226.085 163.254 224.51 163.41V163.358V163.419H224.45V163.463C223.675 165.246 213.896 188.762 225.641 208.746C236.151 226.616 258.188 221.892 264.174 220.213C269.202 225.494 278.372 237.517 282.444 258.032H276.737L279.39 296.938H292.231L295.05 258.084H288.325C291.407 244.178 296.964 230.941 304.733 219.003C310.727 220.5 326.944 223.023 334.94 209.433C344.44 193.208 336.506 174.138 335.87 172.685ZM285.88 172.537L272.308 153.684C272.279 153.645 272.259 153.601 272.247 153.554C272.235 153.507 272.233 153.459 272.24 153.411C272.248 153.363 272.264 153.317 272.289 153.276C272.314 153.235 272.347 153.199 272.387 153.17C272.466 153.112 272.566 153.087 272.664 153.102C272.762 153.117 272.85 153.169 272.909 153.249L285.906 171.301V152.205L272.334 133.361C272.276 133.281 272.251 133.181 272.266 133.083C272.28 132.986 272.333 132.898 272.413 132.839C272.494 132.783 272.594 132.761 272.691 132.777C272.788 132.794 272.876 132.847 272.935 132.926L285.932 150.978V123.138C285.932 123.09 285.942 123.043 285.96 122.998C285.979 122.954 286.006 122.914 286.039 122.88C286.073 122.846 286.114 122.819 286.158 122.801C286.202 122.782 286.25 122.773 286.298 122.773C286.395 122.773 286.488 122.811 286.556 122.88C286.625 122.948 286.663 123.041 286.663 123.138V150.012L300.757 132.143C300.817 132.065 300.905 132.015 301.003 132.003C301.1 131.991 301.198 132.017 301.275 132.077C301.352 132.137 301.402 132.226 301.415 132.323C301.427 132.42 301.4 132.518 301.34 132.595L286.663 151.204V170.344L300.757 152.466C300.819 152.389 300.908 152.34 301.006 152.328C301.103 152.317 301.202 152.344 301.279 152.405C301.317 152.435 301.348 152.471 301.372 152.513C301.395 152.555 301.41 152.601 301.416 152.649C301.422 152.697 301.418 152.745 301.405 152.791C301.392 152.837 301.37 152.88 301.34 152.918L286.663 171.536V187.762L300.757 169.892C300.817 169.815 300.905 169.764 301.003 169.752C301.1 169.74 301.198 169.767 301.275 169.827C301.352 169.887 301.402 169.975 301.415 170.072C301.427 170.169 301.4 170.267 301.34 170.344L286.663 188.954V189.31H285.48L272.352 171.04C272.293 170.961 272.268 170.861 272.283 170.763C272.298 170.665 272.351 170.577 272.43 170.518C272.511 170.463 272.611 170.441 272.708 170.457C272.806 170.473 272.893 170.526 272.952 170.605L285.906 188.632V172.502L285.88 172.537ZM264.313 218.551L262.982 216.724L243.842 211.4C243.765 211.374 243.701 211.32 243.663 211.249C243.624 211.178 243.613 211.095 243.633 211.017C243.655 210.937 243.708 210.87 243.78 210.829C243.851 210.789 243.936 210.778 244.016 210.799L262.355 215.915L254.378 205.005L235.238 199.681C235.158 199.658 235.091 199.606 235.05 199.534C235.009 199.462 234.999 199.377 235.02 199.298C235.046 199.221 235.1 199.157 235.171 199.119C235.242 199.08 235.324 199.07 235.403 199.089L253.751 204.205L244.32 191.294L225.18 185.969C225.142 185.96 225.105 185.942 225.073 185.917C225.042 185.893 225.015 185.862 224.996 185.827C224.976 185.792 224.964 185.754 224.96 185.714C224.956 185.674 224.96 185.634 224.972 185.595C224.982 185.556 224.999 185.52 225.024 185.488C225.048 185.456 225.078 185.429 225.113 185.409C225.148 185.388 225.186 185.375 225.226 185.37C225.266 185.365 225.307 185.367 225.346 185.378L243.694 190.494L230.426 172.345C230.378 172.278 230.359 172.195 230.372 172.113C230.385 172.032 230.429 171.959 230.496 171.91C230.528 171.886 230.565 171.868 230.604 171.858C230.643 171.848 230.684 171.846 230.724 171.853C230.764 171.859 230.802 171.874 230.836 171.896C230.871 171.918 230.9 171.946 230.922 171.98L244.651 190.754L244.59 172.145C244.592 172.063 244.626 171.984 244.684 171.926C244.742 171.868 244.821 171.834 244.903 171.832C244.985 171.834 245.062 171.868 245.119 171.927C245.176 171.985 245.208 172.064 245.208 172.145L245.347 191.572L254.778 204.474L254.639 185.865C254.631 185.82 254.633 185.774 254.645 185.73C254.657 185.686 254.679 185.646 254.708 185.611C254.738 185.576 254.774 185.548 254.816 185.529C254.857 185.51 254.902 185.5 254.947 185.5C254.993 185.5 255.038 185.51 255.079 185.529C255.12 185.548 255.157 185.576 255.187 185.611C255.216 185.646 255.237 185.686 255.249 185.73C255.261 185.774 255.264 185.82 255.256 185.865L255.395 205.301L263.365 216.202L263.225 197.593C263.228 197.511 263.262 197.434 263.32 197.377C263.379 197.32 263.457 197.288 263.539 197.288C263.619 197.288 263.697 197.32 263.754 197.377C263.811 197.434 263.843 197.512 263.843 197.593L263.982 217.029L265.122 218.586L264.313 218.551ZM266.488 218.551C269.272 214.314 277.311 200.403 272.508 187.014C276.242 189.476 280.236 191.519 284.419 193.104V253.516C280.008 235.003 271.708 223.936 266.645 218.551H266.488ZM287.368 249.793V193.382C291.348 191.937 295.165 190.076 298.756 187.831C291.092 200.116 299.678 214.305 301.94 217.655C295.501 227.577 290.589 238.411 287.368 249.793ZM335.148 190.902L319.654 195.252L311.998 205.692L326.883 201.542C326.915 201.532 326.949 201.528 326.983 201.531C327.016 201.534 327.049 201.544 327.078 201.561C327.107 201.577 327.133 201.599 327.154 201.626C327.174 201.653 327.189 201.684 327.197 201.716C327.213 201.78 327.204 201.847 327.171 201.904C327.139 201.961 327.085 202.003 327.023 202.021L311.528 206.371L305.055 215.219L319.941 211.069C320.004 211.053 320.071 211.062 320.128 211.094C320.185 211.127 320.227 211.18 320.245 211.243C320.262 211.308 320.253 211.376 320.22 211.434C320.188 211.492 320.135 211.536 320.071 211.556L304.577 215.906L303.759 217.02C303.611 216.933 303.472 216.854 303.332 216.759L303.794 216.124L303.915 200.359C303.908 200.323 303.91 200.285 303.919 200.249C303.928 200.214 303.945 200.18 303.969 200.152C303.993 200.123 304.022 200.1 304.056 200.084C304.09 200.069 304.126 200.06 304.163 200.06C304.2 200.06 304.237 200.069 304.271 200.084C304.304 200.1 304.334 200.123 304.357 200.152C304.381 200.18 304.398 200.214 304.408 200.249C304.417 200.285 304.418 200.323 304.411 200.359L304.307 215.462L310.71 206.571L310.823 190.807C310.823 190.774 310.83 190.742 310.842 190.711C310.855 190.681 310.874 190.654 310.898 190.631C310.921 190.609 310.949 190.591 310.98 190.579C311.01 190.567 311.043 190.562 311.075 190.563C311.109 190.563 311.141 190.57 311.172 190.582C311.203 190.595 311.23 190.614 311.254 190.637C311.277 190.66 311.296 190.688 311.309 190.719C311.321 190.749 311.328 190.782 311.328 190.815L311.215 205.91L318.871 195.47L318.984 179.705C318.984 179.672 318.99 179.64 319.003 179.609C319.016 179.578 319.034 179.551 319.058 179.527C319.081 179.504 319.109 179.485 319.139 179.472C319.17 179.46 319.203 179.453 319.236 179.453C319.269 179.453 319.301 179.46 319.331 179.473C319.361 179.485 319.389 179.504 319.411 179.528C319.434 179.551 319.452 179.579 319.464 179.61C319.475 179.64 319.481 179.673 319.48 179.705L319.375 194.8L330.511 179.566C330.551 179.514 330.61 179.479 330.675 179.47C330.74 179.46 330.806 179.476 330.859 179.514C330.886 179.533 330.909 179.557 330.926 179.585C330.943 179.613 330.955 179.644 330.96 179.677C330.964 179.709 330.963 179.743 330.954 179.774C330.946 179.806 330.932 179.836 330.911 179.862L320.15 194.591L335.035 190.441C335.099 190.425 335.166 190.434 335.223 190.467C335.279 190.499 335.321 190.552 335.34 190.615C335.347 190.647 335.348 190.68 335.343 190.711C335.337 190.743 335.325 190.774 335.307 190.801C335.289 190.828 335.266 190.851 335.238 190.868C335.211 190.886 335.18 190.897 335.148 190.902Z" fill="#0A1E1E"/>
<path d="M250.584 37.3215H116.256C113.013 37.3215 110.384 39.9507 110.384 43.194V294.702C110.384 297.946 113.013 300.575 116.256 300.575H250.584C253.828 300.575 256.457 297.946 256.457 294.702V43.194C256.457 39.9507 253.828 37.3215 250.584 37.3215Z" fill="#0A1E1E" stroke="#0A1E1E" stroke-width="0.87" stroke-linecap="round" stroke-linejoin="round"/>
<path d="M245.947 37.3215H111.619C108.376 37.3215 105.747 39.9507 105.747 43.194V294.702C105.747 297.946 108.376 300.575 111.619 300.575H245.947C249.19 300.575 251.82 297.946 251.82 294.702V43.194C251.82 39.9507 249.19 37.3215 245.947 37.3215Z" fill="white"/>
<mask id="mask0_865_3558" style="mask-type:luminance" maskUnits="userSpaceOnUse" x="105" y="37" width="147" height="264">
<path d="M245.947 37.3215H111.619C108.376 37.3215 105.747 39.9507 105.747 43.194V294.702C105.747 297.946 108.376 300.575 111.619 300.575H245.947C249.19 300.575 251.82 297.946 251.82 294.702V43.194C251.82 39.9507 249.19 37.3215 245.947 37.3215Z" fill="white"/>
</mask>
<g mask="url(#mask0_865_3558)">
<path d="M251.82 136.658L123.373 300.583H245.956C247.512 300.581 249.003 299.961 250.103 298.86C251.202 297.759 251.82 296.267 251.82 294.711V136.658Z" fill="#53A9A9"/>
<path opacity="0.5" d="M251.82 136.658L123.373 300.583H245.956C247.512 300.581 249.003 299.961 250.103 298.86C251.202 297.759 251.82 296.267 251.82 294.711V136.658Z" fill="white"/>
</g>
<path d="M245.947 37.3215H111.619C108.376 37.3215 105.747 39.9507 105.747 43.194V294.702C105.747 297.946 108.376 300.575 111.619 300.575H245.947C249.19 300.575 251.82 297.946 251.82 294.702V43.194C251.82 39.9507 249.19 37.3215 245.947 37.3215Z" stroke="#0A1E1E" stroke-width="0.87" stroke-linecap="round" stroke-linejoin="round"/>
<path d="M188.91 53.051H170.727C170.231 53.051 169.755 52.854 169.404 52.5032C169.054 52.1524 168.856 51.6766 168.856 51.1805C168.856 50.9353 168.905 50.6925 168.999 50.4661C169.093 50.2396 169.231 50.034 169.405 49.861C169.579 49.688 169.785 49.551 170.012 49.458C170.239 49.3649 170.482 49.3176 170.727 49.3187H188.91C189.404 49.3187 189.877 49.5149 190.226 49.864C190.576 50.2132 190.772 50.6868 190.772 51.1805C190.773 51.4258 190.726 51.6688 190.633 51.8957C190.539 52.1226 190.403 52.3289 190.23 52.5027C190.057 52.6765 189.851 52.8144 189.624 52.9085C189.398 53.0026 189.155 53.051 188.91 53.051Z" fill="#0A1E1E" stroke="#0A1E1E" stroke-width="0.87" stroke-linecap="round" stroke-linejoin="round"/>
<path d="M242.589 277.05H114.96V53.2687H145.21L148.612 56.0875C149.799 57.0762 151.295 57.6179 152.84 57.6187H206.214C207.817 57.6122 209.362 57.0249 210.564 55.9657L213.644 53.2687H242.589V277.05Z" fill="#0A1E1E" stroke="#0A1E1E" stroke-width="0.87" stroke-linecap="round" stroke-linejoin="round"/>
<path d="M138.92 228.8H218.646" stroke="white" stroke-width="0.87" stroke-linecap="round" stroke-linejoin="round"/>
<path d="M138.92 239.292H218.646" stroke="white" stroke-width="0.87" stroke-linecap="round" stroke-linejoin="round"/>
<path d="M138.92 249.784H218.646" stroke="white" stroke-width="0.87" stroke-linecap="round" stroke-linejoin="round"/>
<path d="M146.28 131.386C141.269 138.646 138.836 147.375 139.369 156.18C139.902 164.985 143.37 173.358 149.219 179.96C155.069 186.563 162.962 191.015 171.639 192.605C180.315 194.195 189.274 192.832 197.085 188.733C204.896 184.634 211.108 178.036 214.729 169.992C218.35 161.949 219.171 152.924 217.06 144.359C214.95 135.794 210.031 128.183 203.087 122.742C196.144 117.301 187.578 114.344 178.757 114.343C176.338 114.343 173.924 114.561 171.545 114.995" stroke="white" stroke-width="0.87" stroke-linecap="round" stroke-linejoin="round"/>
<path d="M153.005 123.93C151.68 125.077 150.43 126.309 149.264 127.619" stroke="white" stroke-width="0.87" stroke-linecap="round" stroke-linejoin="round"/>
<path d="M209.584 166.923C216.829 149.913 208.913 130.249 191.902 123.004C174.892 115.759 155.228 123.676 147.983 140.686C140.738 157.697 148.655 177.36 165.665 184.605C182.676 191.85 202.339 183.934 209.584 166.923Z" fill="#53A9A9"/>
<path d="M163.323 150.326L176.025 164.759L196.801 135.327" stroke="#0A1E1E" stroke-width="5.22" stroke-linecap="round" stroke-linejoin="round"/>
<path d="M210.599 55.9657C209.397 57.0249 207.851 57.6122 206.249 57.6187H152.857C151.312 57.6179 149.816 57.0762 148.629 56.0875L145.227 53.2687H114.96V76.1584H242.589V53.2687H213.679L210.599 55.9657Z" fill="#53A9A9" stroke="#0A1E1E" stroke-width="0.87" stroke-linecap="round" stroke-linejoin="round"/>
<path d="M182.863 283.949C182.865 283.374 182.696 282.811 182.377 282.331C182.059 281.852 181.605 281.478 181.074 281.257C180.542 281.036 179.957 280.978 179.393 281.09C178.828 281.202 178.31 281.479 177.903 281.886C177.496 282.293 177.219 282.811 177.107 283.376C176.995 283.94 177.054 284.525 177.275 285.056C177.496 285.588 177.869 286.041 178.349 286.36C178.828 286.679 179.391 286.848 179.966 286.846C180.734 286.844 181.469 286.538 182.012 285.995C182.555 285.452 182.861 284.717 182.863 283.949Z" fill="#0A1E1E" stroke="#0A1E1E" stroke-width="0.87" stroke-linecap="round" stroke-linejoin="round"/>
<path d="M69.3546 194.948L57.975 296.738C57.975 296.738 49.6317 303.994 50.3625 306.926C51.0933 309.858 60.7242 305.186 62.0553 302.767C62.9999 300.754 63.6728 298.624 64.0563 296.434L88.0161 219.874L106.443 301.975C106.443 301.975 114.273 308.405 118.623 308.187C122.973 307.97 121.424 306.256 118.945 303.115C116.465 299.974 110.854 298.182 110.854 298.182L108.087 192.364L69.3546 194.948Z" fill="#0A1E1E" stroke="#0A1E1E" stroke-width="0.87" stroke-linecap="round" stroke-linejoin="round"/>
<path d="M107.463 190.583L69.2319 192.527L69.4969 197.74L107.728 195.797L107.463 190.583Z" fill="#0A1E1E" stroke="#0A1E1E" stroke-width="0.87" stroke-linecap="round" stroke-linejoin="round"/>
<path d="M92.9489 193.895C93.0098 195.192 91.3655 196.323 89.2601 196.436C87.1547 196.549 85.3799 195.592 85.3799 194.287C85.3799 192.982 86.972 191.86 89.0687 191.755C91.1654 191.651 92.8793 192.608 92.9489 193.895Z" fill="white"/>
<path d="M86.3978 140.408L72.0254 144.619L73.8089 192.66L107.521 191.825L103.258 142.165L86.3978 140.408Z" fill="white" stroke="#0A1E1E" stroke-width="0.87" stroke-linecap="round" stroke-linejoin="round"/>
<path d="M80.1078 140.947L78.1764 222.927L59.8716 214.062L67.9191 188.171L62.4294 144.453L80.1078 140.947Z" fill="#53A9A9" stroke="#0A1E1E" stroke-width="0.87" stroke-linecap="round" stroke-linejoin="round"/>
<path d="M94.6628 140.208L104.894 221.57L122.216 210.895L111.584 185.952L112.611 141.904L94.6628 140.208Z" fill="#53A9A9" stroke="#0A1E1E" stroke-width="0.87" stroke-linecap="round" stroke-linejoin="round"/>
<path d="M83.7705 150.126L86.6241 154.771L84.3447 187.118L89.7561 193.521L92.5575 185.83L88.2249 154.832L90.8958 150.343L87.0156 145.314L83.7705 150.126Z" fill="#0A1E1E" stroke="#0A1E1E" stroke-width="0.87" stroke-linecap="round" stroke-linejoin="round"/>
<path d="M87.3026 149.508L81.9173 153.562L77.6021 143.035L80.0294 139.277L93.2099 138.607L96.3245 142.809L93.758 152.379L87.3026 149.508Z" fill="white" stroke="#0A1E1E" stroke-width="0.87" stroke-linecap="round" stroke-linejoin="round"/>
<path d="M81.1255 135.231L82.3348 141.921L87.3025 149.508L91.8526 140.564L91.5655 134.918L81.1255 135.231Z" fill="white" stroke="#0A1E1E" stroke-width="0.87" stroke-linecap="round" stroke-linejoin="round"/>
<path d="M62.4293 144.453L38.0171 174.007L54.2426 193.217L60.7763 188.971L52.7549 172.606L64.7261 163.941L62.4293 144.453Z" fill="#53A9A9" stroke="#0A1E1E" stroke-width="0.87" stroke-linecap="round" stroke-linejoin="round"/>
<path d="M60.7762 188.971L61.7506 191.094L56.2522 194.208L55.5127 192.503L60.7762 188.971Z" fill="white" stroke="#0A1E1E" stroke-width="0.87" stroke-linecap="round" stroke-linejoin="round"/>
<path d="M61.7507 191.094L67.3535 198.437L65.5091 200.707L64.1693 200.124L61.4549 202.439C61.4549 202.439 59.4713 201.882 59.219 201.247C58.9667 200.612 56.2784 198.993 56.2175 197.915C56.1566 196.836 56.2175 194.208 56.2175 194.208L61.7507 191.094Z" fill="white" stroke="#0A1E1E" stroke-width="0.87" stroke-linecap="round" stroke-linejoin="round"/>
<path d="M126.209 147.672C126.54 146.81 126.612 145.87 126.418 144.967C126.018 143.931 125.13 140.347 125.304 139.164C125.478 137.98 127.271 136.258 127.427 134.727C127.584 133.195 127.427 131.795 127.427 130.968C127.442 130.742 127.529 130.526 127.675 130.354C127.822 130.181 128.021 130.06 128.242 130.009C128.463 129.959 128.694 129.98 128.901 130.072C129.109 130.163 129.281 130.319 129.393 130.516C130.263 131.525 130.785 132.56 130.368 133.63C130.083 134.827 129.949 136.055 129.968 137.284C129.968 137.284 131.36 139.207 132.125 140.46C132.891 141.713 132.821 144.993 132.308 146.306C131.829 147.301 131.155 148.189 130.324 148.916L130.411 151.178L126.209 147.672Z" fill="white" stroke="#0A1E1E" stroke-width="0.87" stroke-linecap="round" stroke-linejoin="round"/>
<path d="M128.749 135.475C128.749 135.475 128.14 137.267 129.21 137.676C130.28 138.085 134.657 138.694 134.7 137.284C134.744 135.875 134.831 135.17 134.126 135.205C133.421 135.24 130.141 135.205 130.141 135.205C130.141 135.205 128.619 135.127 128.749 135.475Z" fill="white" stroke="#0A1E1E" stroke-width="0.87" stroke-linecap="round" stroke-linejoin="round"/>
<path d="M129.245 144.262C129.245 144.262 128.81 145.593 129.584 145.897C130.359 146.202 133.508 146.663 133.534 145.61C133.56 144.558 133.621 144.036 133.117 144.062C132.612 144.088 130.246 144.062 130.246 144.062C130.246 144.062 129.149 143.983 129.245 144.262Z" fill="white" stroke="#0A1E1E" stroke-width="0.87" stroke-linecap="round" stroke-linejoin="round"/>
<path d="M128.662 141.417C128.662 141.417 128.158 142.965 129.054 143.322C129.95 143.679 133.595 144.192 133.63 142.991C133.665 141.791 133.734 141.164 133.143 141.191C132.551 141.217 129.819 141.191 129.819 141.191C129.819 141.191 128.549 141.121 128.662 141.417Z" fill="white" stroke="#0A1E1E" stroke-width="0.87" stroke-linecap="round" stroke-linejoin="round"/>
<path d="M128.323 138.659C128.323 138.659 127.714 140.451 128.793 140.86C129.871 141.269 134.23 141.878 134.274 140.469C134.317 139.059 134.404 138.355 133.699 138.389C132.995 138.424 129.715 138.389 129.715 138.389C129.715 138.389 128.192 138.32 128.323 138.659Z" fill="white" stroke="#0A1E1E" stroke-width="0.87" stroke-linecap="round" stroke-linejoin="round"/>
<path d="M125.713 149.456L126.392 146.724L131.107 149.534L130.315 152.501L125.713 149.456Z" fill="white" stroke="#0A1E1E" stroke-width="0.87" stroke-linecap="round" stroke-linejoin="round"/>
<path d="M112.611 141.904L121.641 161.122L126.078 148.76L130.428 152.901L125.974 175.817C125.835 176.522 125.493 177.172 124.99 177.685C124.487 178.199 123.844 178.555 123.142 178.708C122.439 178.861 121.707 178.806 121.036 178.549C120.364 178.292 119.782 177.844 119.362 177.261L112.15 167.195L112.611 141.904Z" fill="#53A9A9" stroke="#0A1E1E" stroke-width="0.87" stroke-linecap="round" stroke-linejoin="round"/>
<path d="M76.9235 127.419C76.9235 127.419 75.0965 125.47 74.8616 126.897C74.6267 128.323 75.3662 130.785 76.5146 131.664C77.663 132.543 78.6722 131.09 78.6722 131.09L76.9235 127.419Z" fill="white" stroke="#0A1E1E" stroke-width="0.87" stroke-linecap="round" stroke-linejoin="round"/>
<path d="M94.193 126.54C94.193 126.54 95.8025 124.417 96.194 125.809C96.5855 127.201 96.0809 129.733 95.0282 130.725C93.9755 131.716 92.8184 130.368 92.8184 130.368L94.193 126.54Z" fill="white" stroke="#0A1E1E" stroke-width="0.87" stroke-linecap="round" stroke-linejoin="round"/>
<path d="M77.6544 129.42L75.9144 125.74C74.5139 123.768 73.5446 121.524 73.0695 119.154C72.1995 115.117 73.635 111.759 75.462 110.723C76.4888 110.109 77.7011 109.88 78.8811 110.08C78.8811 110.08 79.2291 107.713 84.9711 105.73C90.7131 103.746 96.9597 107.322 96.864 108.574C96.7683 109.827 95.2371 110.384 95.2371 110.384C95.2371 110.384 99.7089 112.037 98.0907 114.151C97.0928 115.443 95.8014 116.477 94.3236 117.17C94.6479 118.236 94.9122 119.319 95.1153 120.415C95.3415 121.816 94.08 127.836 94.08 127.836L90.9915 119.371L81.2997 119.867C81.2997 119.867 80.7255 123.973 79.6989 125.435C79.0436 126.544 78.6785 127.801 78.6375 129.089C78.6375 129.089 78.1851 130.638 77.6544 129.42Z" fill="#0A1E1E" stroke="#0A1E1E" stroke-width="0.87" stroke-linecap="round" stroke-linejoin="round"/>
<path d="M79.3768 114.125C79.3602 116.652 79.1771 119.174 78.8287 121.677C78.6191 123.069 77.8998 124.334 76.8103 125.226C76.8103 125.226 78.0457 130.96 79.6117 134.013C81.1777 137.067 84.4315 139.573 87.7114 139.233C90.9913 138.894 93.61 135.17 93.9232 132.021C94.2364 128.871 92.6965 117.231 92.6965 117.231C92.6965 117.231 82.4479 119.032 79.3768 114.125Z" fill="white" stroke="#0A1E1E" stroke-width="0.87" stroke-linecap="round" stroke-linejoin="round"/>
<path d="M80.2468 125.896C80.7692 125.587 81.359 125.409 81.9653 125.379C82.5716 125.349 83.1762 125.467 83.7268 125.722" stroke="#0A1E1E" stroke-width="0.87" stroke-linecap="round" stroke-linejoin="round"/>
<path d="M80.1074 123.286C80.1074 123.286 80.3075 121.546 83.2133 121.39" stroke="#0A1E1E" stroke-width="0.87" stroke-linecap="round" stroke-linejoin="round"/>
<path d="M87.842 121.007C88.4995 120.737 89.226 120.686 89.915 120.86C90.6039 121.033 91.219 121.423 91.67 121.972" stroke="#0A1E1E" stroke-width="0.87" stroke-linecap="round" stroke-linejoin="round"/>
<path d="M86.8241 123.817C86.8241 123.817 87.2852 127.297 87.3113 127.723C87.3374 128.149 88.7903 128.228 88.3988 129.115C88.0073 130.002 86.7458 130.942 85.6931 130.272" stroke="#0A1E1E" stroke-width="0.87" stroke-linecap="round" stroke-linejoin="round"/>
<path d="M88.4595 133.187C88.4595 133.187 87.3546 134.257 85.1274 133.352" stroke="#0A1E1E" stroke-width="0.87" stroke-linecap="round" stroke-linejoin="round"/>
<path d="M90.6607 124.93C90.6607 125.574 90.391 126.114 89.9908 126.131C89.5906 126.148 89.2426 125.644 89.2078 125.009C89.173 124.374 89.4775 123.834 89.8777 123.808C90.2779 123.782 90.5998 124.295 90.6607 124.93Z" fill="#0A1E1E"/>
</svg>
