<svg width="64" height="62" viewBox="0 0 64 62" fill="none" xmlns="http://www.w3.org/2000/svg">
<path opacity="0.3" fill-rule="evenodd" clip-rule="evenodd" d="M0 30.9999V38.9867C0 51.6892 10.2975 61.9867 23 61.9867L32 61.9867L41 61.9867C53.7025 61.9867 64 51.6892 64 38.9867V30.9999V23.0132C64 10.3106 53.7025 0.0131836 41 0.0131836H32H23C10.2975 0.0131836 0 10.3106 0 23.0132V30.9999Z" fill="#FF9066"/>
<path opacity="0.78" fill-rule="evenodd" clip-rule="evenodd" d="M30.5411 24.5888C30.5618 24.3289 30.7788 24.1284 31.0396 24.1284H31.5489C31.8052 24.1284 32.0199 24.3222 32.0463 24.5771L32.711 31.0144L37.4309 33.626C37.59 33.7141 37.6888 33.8816 37.6888 34.0635V34.4967C37.6888 34.8248 37.3783 35.0639 37.0611 34.9802L30.2704 33.1868C30.0366 33.1251 29.8805 32.9048 29.8997 32.6638L30.5411 24.5888Z" fill="#FF9066"/>
<path opacity="0.901274" fill-rule="evenodd" clip-rule="evenodd" d="M24.2038 15.4525C23.9352 15.1425 23.4185 15.2588 23.3219 15.6511L21.5597 22.8048C21.4806 23.126 21.7446 23.4316 22.0851 23.413L29.6849 22.9959C30.1014 22.9731 30.3106 22.4998 30.0415 22.1893L28.0871 19.9339C29.3296 19.5228 30.6471 19.3081 32 19.3081C38.6765 19.3081 44.0889 24.5491 44.0889 31.0142C44.0889 37.4793 38.6765 42.7203 32 42.7203C25.3235 42.7203 19.9111 37.4793 19.9111 31.0142C19.9111 29.9288 20.0629 28.8658 20.3588 27.8442L17.6201 27.1003C17.2595 28.3451 17.0667 29.6578 17.0667 31.0142C17.0667 39.0005 23.7525 45.4747 32 45.4747C40.2474 45.4747 46.9333 39.0005 46.9333 31.0142C46.9333 23.0279 40.2474 16.5537 32 16.5537C29.9255 16.5537 27.9498 16.9633 26.1544 17.7036L24.2038 15.4525Z" fill="#FF9066"/>
</svg>
