<svg width="64" height="62" viewBox="0 0 64 62" fill="none" xmlns="http://www.w3.org/2000/svg">
<path opacity="0.21" fill-rule="evenodd" clip-rule="evenodd" d="M0 30.9999V38.1803C0 51.3282 10.6585 61.9867 23.8064 61.9867L32 61.9867L40.1936 61.9867C53.3415 61.9867 64 51.3282 64 38.1803V30.9999V23.8196C64 10.6717 53.3415 0.0131836 40.1936 0.0131836H32H23.8064C10.6585 0.0131836 0 10.6717 0 23.8196V30.9999Z" fill="#8280FF"/>
<path opacity="0.587821" fill-rule="evenodd" clip-rule="evenodd" d="M22.0444 24.1142C22.0444 27.1566 24.5914 29.623 27.7333 29.623C30.8752 29.623 33.4222 27.1566 33.4222 24.1142C33.4222 21.0718 30.8752 18.6055 27.7333 18.6055C24.5914 18.6055 22.0444 21.0718 22.0444 24.1142ZM36.2666 29.623C36.2666 31.9048 38.1769 33.7546 40.5333 33.7546C42.8897 33.7546 44.8 31.9048 44.8 29.623C44.8 27.3412 42.8897 25.4915 40.5333 25.4915C38.1769 25.4915 36.2666 27.3412 36.2666 29.623Z" fill="#8280FF"/>
<path fill-rule="evenodd" clip-rule="evenodd" d="M27.7097 32.3772C20.9947 32.3772 15.4855 35.719 14.9343 42.2919C14.9042 42.6499 15.6113 43.3947 15.968 43.3947H39.462C40.5304 43.3947 40.547 42.5622 40.5304 42.293C40.1136 35.5354 34.5191 32.3772 27.7097 32.3772ZM48.293 43.3948H42.809C42.809 40.2948 41.7512 37.4341 39.9662 35.1325C44.811 35.1838 48.7669 37.5557 49.0646 42.5685C49.0766 42.7704 49.0646 43.3948 48.293 43.3948Z" fill="#8280FF"/>
</svg>
