<svg width="64" height="64" viewBox="0 0 64 64" fill="none" xmlns="http://www.w3.org/2000/svg">
<path opacity="0.21" fill-rule="evenodd" clip-rule="evenodd" d="M32.016 63.0119C32.0107 63.0119 32.0053 63.0119 32 63.0119C31.9947 63.0119 31.9893 63.0119 31.984 63.0119H22.6771C10.1529 63.0119 0 52.859 0 40.3348V32.0001V23.6654C0 11.1412 10.1529 0.988281 22.6771 0.988281H32H41.3229C53.8471 0.988281 64 11.1412 64 23.6654V32.0001V40.3348C64 52.859 53.8471 63.0119 41.3229 63.0119H32.016Z" fill="#4AD991"/>
<path d="M20.3852 43.2561H45.2741C46.1904 43.2561 46.9333 43.9761 46.9333 44.8642C46.9333 45.7523 46.1904 46.4722 45.2741 46.4722H18.7259C17.8095 46.4722 17.0667 45.7523 17.0667 44.8642V19.1359C17.0667 18.2478 17.8095 17.5278 18.7259 17.5278C19.6423 17.5278 20.3852 18.2478 20.3852 19.1359V43.2561Z" fill="#4AD991"/>
<path opacity="0.5" d="M26.5734 36.316C25.9466 36.9639 24.8966 36.9967 24.228 36.3893C23.5595 35.7819 23.5256 34.7643 24.1524 34.1164L30.3746 27.6844C30.9808 27.0578 31.988 27.0034 32.6622 27.5609L37.5731 31.6222L43.9717 23.7677C44.5395 23.0706 45.5829 22.9517 46.3021 23.502C47.0214 24.0523 47.1441 25.0634 46.5763 25.7605L39.1096 34.9262C38.5264 35.6421 37.4462 35.7451 36.7303 35.153L31.7126 31.0035L26.5734 36.316Z" fill="#4AD991"/>
</svg>
