<svg width="144" height="33" viewBox="0 0 144 33" fill="none" xmlns="http://www.w3.org/2000/svg">
<path d="M12 20.3892V21.1665C12 22.7578 12.6321 24.2839 13.7574 25.4091C14.8826 26.5344 16.4087 27.1665 18 27.1665C19.5913 27.1665 21.1174 26.5344 22.2426 25.4091C23.3679 24.2839 24 22.7578 24 21.1665V18.9398C23.11 18.6253 22.3599 18.0062 21.8822 17.1921C21.4045 16.3779 21.23 15.4211 21.3896 14.4908C21.5492 13.5604 22.0325 12.7164 22.7542 12.108C23.4758 11.4996 24.3894 11.1659 25.3333 11.1659C26.2773 11.1659 27.1908 11.4996 27.9125 12.108C28.6342 12.7164 29.1175 13.5604 29.2771 14.4908C29.4366 15.4211 29.2622 16.3779 28.7845 17.1921C28.3068 18.0062 27.5567 18.6253 26.6667 18.9398V21.1665C26.6667 23.465 25.7536 25.6694 24.1283 27.2948C22.5029 28.9201 20.2985 29.8332 18 29.8332C15.7015 29.8332 13.4971 28.9201 11.8717 27.2948C10.2464 25.6694 9.33333 23.465 9.33333 21.1665V20.3892C7.46924 20.0735 5.77709 19.1081 4.5568 17.664C3.33652 16.22 2.66691 14.3905 2.66667 12.4998L2.66667 5.83317C2.66667 5.12593 2.94762 4.44765 3.44772 3.94755C3.94781 3.44746 4.62609 3.1665 5.33333 3.1665H6.66667C7.02029 3.1665 7.35943 3.30698 7.60948 3.55703C7.85953 3.80708 8 4.14622 8 4.49984C8 4.85346 7.85953 5.1926 7.60948 5.44265C7.35943 5.69269 7.02029 5.83317 6.66667 5.83317H5.33333V12.4998C5.33333 13.9143 5.89524 15.2709 6.89543 16.2711C7.89563 17.2713 9.25218 17.8332 10.6667 17.8332C12.0812 17.8332 13.4377 17.2713 14.4379 16.2711C15.4381 15.2709 16 13.9143 16 12.4998V5.83317H14.6667C14.313 5.83317 13.9739 5.69269 13.7239 5.44265C13.4738 5.1926 13.3333 4.85346 13.3333 4.49984C13.3333 4.14622 13.4738 3.80708 13.7239 3.55703C13.9739 3.30698 14.313 3.1665 14.6667 3.1665H16C16.7072 3.1665 17.3855 3.44746 17.8856 3.94755C18.3857 4.44765 18.6667 5.12593 18.6667 5.83317V12.4998C18.6664 14.3905 17.9968 16.22 16.7765 17.664C15.5562 19.1081 13.8641 20.0735 12 20.3892ZM25.3333 16.4998C25.687 16.4998 26.0261 16.3594 26.2761 16.1093C26.5262 15.8593 26.6667 15.5201 26.6667 15.1665C26.6667 14.8129 26.5262 14.4737 26.2761 14.2237C26.0261 13.9736 25.687 13.8332 25.3333 13.8332C24.9797 13.8332 24.6406 13.9736 24.3905 14.2237C24.1405 14.4737 24 14.8129 24 15.1665C24 15.5201 24.1405 15.8593 24.3905 16.1093C24.6406 16.3594 24.9797 16.4998 25.3333 16.4998Z" fill="#0A1E1E"/>
<path d="M49.8789 26L44.125 10.8359H44.0312C44.0625 11.1562 44.0898 11.5469 44.1133 12.0078C44.1367 12.4688 44.1562 12.9727 44.1719 13.5195C44.1875 14.0586 44.1953 14.6094 44.1953 15.1719V26H42.3438V8.86719H45.2969L50.7227 23.1172H50.8047L56.3125 8.86719H59.2422V26H57.2734V15.0312C57.2734 14.5234 57.2812 14.0156 57.2969 13.5078C57.3125 12.9922 57.332 12.5078 57.3555 12.0547C57.3789 11.5938 57.4023 11.1953 57.4258 10.8594H57.332L51.5078 26H49.8789ZM68.582 12.9219C69.6758 12.9219 70.6133 13.1641 71.3945 13.6484C72.1758 14.1328 72.7734 14.8125 73.1875 15.6875C73.6016 16.5547 73.8086 17.5703 73.8086 18.7344V19.9414H64.9375C64.9609 21.4492 65.3359 22.5977 66.0625 23.3867C66.7891 24.1758 67.8125 24.5703 69.1328 24.5703C69.9453 24.5703 70.6641 24.4961 71.2891 24.3477C71.9141 24.1992 72.5625 23.9805 73.2344 23.6914V25.4023C72.5859 25.6914 71.9414 25.9023 71.3008 26.0352C70.668 26.168 69.918 26.2344 69.0508 26.2344C67.8164 26.2344 66.7383 25.9844 65.8164 25.4844C64.9023 24.9766 64.1914 24.2344 63.6836 23.2578C63.1758 22.2812 62.9219 21.0859 62.9219 19.6719C62.9219 18.2891 63.1523 17.0938 63.6133 16.0859C64.082 15.0703 64.7383 14.2891 65.582 13.7422C66.4336 13.1953 67.4336 12.9219 68.582 12.9219ZM68.5586 14.5156C67.5195 14.5156 66.6914 14.8555 66.0742 15.5352C65.457 16.2148 65.0898 17.1641 64.9727 18.3828H71.7695C71.7617 17.6172 71.6406 16.9453 71.4062 16.3672C71.1797 15.7812 70.832 15.3281 70.3633 15.0078C69.8945 14.6797 69.293 14.5156 68.5586 14.5156ZM81.6836 26.2344C80.0586 26.2344 78.7695 25.6797 77.8164 24.5703C76.8711 23.4609 76.3984 21.8125 76.3984 19.625C76.3984 17.4141 76.8828 15.7461 77.8516 14.6211C78.8203 13.4883 80.1094 12.9219 81.7188 12.9219C82.3984 12.9219 82.9922 13.0117 83.5 13.1914C84.0078 13.3711 84.4453 13.6133 84.8125 13.918C85.1797 14.2148 85.4883 14.5547 85.7383 14.9375H85.8789C85.8477 14.6953 85.8164 14.3633 85.7852 13.9414C85.7539 13.5195 85.7383 13.1758 85.7383 12.9102V7.76562H87.6836V26H86.1133L85.8203 24.1719H85.7383C85.4961 24.5547 85.1875 24.9023 84.8125 25.2148C84.4453 25.5273 84.0039 25.7773 83.4883 25.9648C82.9805 26.1445 82.3789 26.2344 81.6836 26.2344ZM81.9883 24.6172C83.3633 24.6172 84.3359 24.2266 84.9062 23.4453C85.4766 22.6641 85.7617 21.5039 85.7617 19.9648V19.6133C85.7617 17.9805 85.4883 16.7266 84.9414 15.8516C84.4023 14.9766 83.418 14.5391 81.9883 14.5391C80.793 14.5391 79.8984 15 79.3047 15.9219C78.7109 16.8359 78.4141 18.0859 78.4141 19.6719C78.4141 21.25 78.707 22.4688 79.293 23.3281C79.8867 24.1875 80.7852 24.6172 81.9883 24.6172ZM90.4727 21.0312V18.1016H96.7656V21.0312H90.4727ZM109.762 21.2422C109.762 22.2578 109.516 23.1406 109.023 23.8906C108.531 24.6406 107.812 25.2188 106.867 25.625C105.93 26.0312 104.789 26.2344 103.445 26.2344C102.852 26.2344 102.27 26.1953 101.699 26.1172C101.137 26.0391 100.594 25.9258 100.07 25.7773C99.5547 25.6211 99.0625 25.4297 98.5938 25.2031V21.8281C99.4062 22.1875 100.25 22.5117 101.125 22.8008C102 23.0898 102.867 23.2344 103.727 23.2344C104.32 23.2344 104.797 23.1562 105.156 23C105.523 22.8438 105.789 22.6289 105.953 22.3555C106.117 22.082 106.199 21.7695 106.199 21.418C106.199 20.9883 106.055 20.6211 105.766 20.3164C105.477 20.0117 105.078 19.7266 104.57 19.4609C104.07 19.1953 103.504 18.9102 102.871 18.6055C102.473 18.418 102.039 18.1914 101.57 17.9258C101.102 17.6523 100.656 17.3203 100.234 16.9297C99.8125 16.5391 99.4648 16.0664 99.1914 15.5117C98.9258 14.9492 98.793 14.2773 98.793 13.4961C98.793 12.4727 99.0273 11.5977 99.4961 10.8711C99.9648 10.1445 100.633 9.58984 101.5 9.20703C102.375 8.81641 103.406 8.62109 104.594 8.62109C105.484 8.62109 106.332 8.72656 107.137 8.9375C107.949 9.14062 108.797 9.4375 109.68 9.82812L108.508 12.6523C107.719 12.332 107.012 12.0859 106.387 11.9141C105.762 11.7344 105.125 11.6445 104.477 11.6445C104.023 11.6445 103.637 11.7188 103.316 11.8672C102.996 12.0078 102.754 12.2109 102.59 12.4766C102.426 12.7344 102.344 13.0352 102.344 13.3789C102.344 13.7852 102.461 14.1289 102.695 14.4102C102.938 14.6836 103.297 14.9492 103.773 15.207C104.258 15.4648 104.859 15.7656 105.578 16.1094C106.453 16.5234 107.199 16.957 107.816 17.4102C108.441 17.8555 108.922 18.3828 109.258 18.9922C109.594 19.5938 109.762 20.3438 109.762 21.2422ZM118.34 8.86719C120.551 8.86719 122.164 9.34375 123.18 10.2969C124.195 11.2422 124.703 12.5469 124.703 14.2109C124.703 14.9609 124.59 15.6797 124.363 16.3672C124.137 17.0469 123.766 17.6523 123.25 18.1836C122.742 18.7148 122.062 19.1367 121.211 19.4492C120.359 19.7539 119.309 19.9062 118.059 19.9062H116.5V26H112.867V8.86719H118.34ZM118.152 11.8438H116.5V16.9297H117.695C118.375 16.9297 118.965 16.8398 119.465 16.6602C119.965 16.4805 120.352 16.1992 120.625 15.8164C120.898 15.4336 121.035 14.9414 121.035 14.3398C121.035 13.4961 120.801 12.8711 120.332 12.4648C119.863 12.0508 119.137 11.8438 118.152 11.8438ZM134.441 16.3789H141.238V25.2617C140.34 25.5586 139.406 25.7969 138.438 25.9766C137.469 26.1484 136.371 26.2344 135.145 26.2344C133.441 26.2344 131.996 25.8984 130.809 25.2266C129.621 24.5547 128.719 23.5625 128.102 22.25C127.484 20.9375 127.176 19.3242 127.176 17.4102C127.176 15.6133 127.52 14.0586 128.207 12.7461C128.902 11.4336 129.914 10.418 131.242 9.69922C132.578 8.98047 134.207 8.62109 136.129 8.62109C137.035 8.62109 137.93 8.71875 138.812 8.91406C139.695 9.10938 140.496 9.36328 141.215 9.67578L140.008 12.582C139.484 12.3164 138.887 12.0938 138.215 11.9141C137.543 11.7344 136.84 11.6445 136.105 11.6445C135.051 11.6445 134.133 11.8867 133.352 12.3711C132.578 12.8555 131.977 13.5352 131.547 14.4102C131.125 15.2773 130.914 16.3008 130.914 17.4805C130.914 18.5977 131.066 19.5898 131.371 20.457C131.676 21.3164 132.156 21.9922 132.812 22.4844C133.469 22.9688 134.324 23.2109 135.379 23.2109C135.895 23.2109 136.328 23.1875 136.68 23.1406C137.039 23.0859 137.375 23.0312 137.688 22.9766V19.4023H134.441V16.3789Z" fill="#0A1E1E"/>
</svg>
